<svg version="1.2" xmlns="http://www.w3.org/2000/svg" viewBox="0 0 179 45" width="1790" height="450">
	<title>Punjabi Paradise Secondary Logo-svg</title>
	<style>
		.s0 { fill: #e81c26 } 
		.s1 { fill: #f7bd17 } 
		.s2 { fill: #e6333a } 
	</style>
	<path id="Layer" class="s0" d="m44.3 26.7q-0.5 0.1-1.1 0.2c-0.2 0.1-0.5 0.1-0.5 0.3 0.1 0.3 0.4 0.2 0.6 0.1 1-0.2 2.1-0.1 3.2 0.1 1.7 0.2 3.2 0.7 4.6 1.8q0 0 0 0c0.3 0.2 0.6 0.5 0.5 0.8-0.1 0.2-0.5 0-0.8 0-3.1-0.7-6.2-0.5-9.3 0.2-2.5 0.6-4.9 1.7-7.5 2.4-2.7 0.8-5.4 1.5-8.3 1.6-1.3 0.1-2.6 0.1-3.9 0-2.8-0.3-5.4-1.2-7.6-3-1-0.8-1.9-1.7-2.7-2.7-1.2-1.6-1.3-3.3-0.8-5.2 0.7-2.1 2-3.6 4.2-4.2 1.3-0.4 2.6-0.2 3.9 0.4 1.9 0.8 3.6 2.1 5.4 3.3 2 1.5 4.1 2.6 6.5 3.3 1.9 0.5 3.9 0.7 5.9 0.6 0.8 0 1.6-0.2 2.4-0.3 1.7-0.2 3.4-0.3 5.1 0.1q0.1 0 0.2 0 0 0.1 0 0.2z"/>
	<path id="Layer" class="s1" d="m3.4 27c0.3-0.1 0.3 0.1 0.5 0.2 2.3 2.7 4.9 5.1 7.8 7 1.9 1.2 3.8 2.3 6 2.9q1.4 0.3 2.9 0.4c0.1 0.1 0.3 0.1 0.3-0.1 0.1-0.2-0.1-0.3-0.2-0.3-0.5-0.3-1.1-0.4-1.6-0.6-1.6-0.6-3.1-1.1-4.5-2-2.2-1.4-3.8-3.3-5-5.5q-0.5-1-0.9-2c-0.1-0.1-0.2-0.2 0-0.3 0.1 0 0.2 0.1 0.2 0.2 0.6 1 1.3 1.8 2 2.7 1 1 2 2 3.2 2.8 1.3 0.8 2.6 1.6 4 2.1 1.3 0.6 2.8 0.8 4.3 1 4.1 0.4 8.1-0.1 12-1.5 3.3-1.2 6.5-2.3 9.9-3 1.6-0.3 3.2-0.6 4.9-0.3q0.6 0.1 1.2 0.4c0.6 0.3 0.6 0.4 0.2 0.8-1.5 1.4-3 2.7-4.6 3.8-3.3 2.4-6.8 4.4-10.6 5.8-3.6 1.3-7.3 2.1-11.1 1.8-4.6-0.5-8.8-1.9-12.6-4.5q-5.9-4.1-8-11-0.2-0.4-0.3-0.8 0 0 0 0z"/>
	<path id="Layer" class="s1" d="m32.9 8.1c0.9-1.9 0.5-4 0.6-6.2 0.8 1.2 1.2 2.4 1.4 3.7 0.4 2.2 0.1 4.2-1.4 5.9 0 0.1-0.2 0.3-0.1 0.4 0.1 0.1 0.3 0 0.4 0 0.2-0.1 0.4-0.3 0.5-0.1 0.1 0.2 0 0.4-0.1 0.5-1.5 2.5-1 4.8 0.4 7.2q0.2 0.4 0.5 0.8c0.1 0.2 0.3 0.4 0.6 0.3 0.3-0.1 0.2-0.4 0.2-0.6-0.2-1.3-0.1-2.5 0-3.8q0.1-0.8 0.4-1.7c0.3 0.2 0.3 0.4 0.3 0.6q0.5 2.6 2.2 4.7c0.7 1 1.1 2.1 1 3.4-0.1 0.7-0.4 1.4-1 1.8-0.4 0.3-0.6 0.2-0.6-0.3q-0.1-0.1-0.1-0.3c0-0.2 0-0.7-0.3-0.7-0.2-0.1-0.2 0.3-0.3 0.5-0.3 0.4-0.6 0.9-0.9 1.2-0.4 0.4-0.9 0.3-1.4 0.1-0.9-0.4-1.5-1.2-2.1-2q-0.9-1.3-1.3-2.8c0-0.2 0-0.4-0.3-0.5-0.2 0.9-0.4 1.8-0.2 2.6 0.1 0.9 0.5 1.7 1.2 2.4-1 0-1.7-0.4-2.2-1.1-0.4-0.5-0.7-1-1-1.5-0.1-0.1-0.2-0.4-0.5-0.3q-0.3 0.1-0.3 0.5 0 0.6-0.6 0.7c-0.6 0.2-0.7 0.2-0.9-0.4-0.5-1.2-1.2-2.3-1.6-3.6-0.4 0.9-0.2 1.8-0.5 2.7-0.7-0.4-0.7-1.1-1-1.7q-0.1 0.1-0.1 0.1c-0.2 0.1 0 0.5-0.3 0.4-0.2 0-0.3-0.3-0.4-0.5q-0.1-0.5 0.1-1c0.3-1.2 0.4-2.5 0.6-3.8 0.3-2.1 1.4-3.6 3.2-4.7q0 0 0.1 0 0 0 0.1 0c-0.1 0.3-0.3 0.6-0.5 0.8q-0.5 0.8-0.6 1.7c-0.1 0.1-0.1 0.2 0 0.3 0.1 0 0.2-0.1 0.3-0.1 0.1-0.1 0.1-0.3 0.3-0.2 0.2 0.1 0.1 0.3 0.1 0.4-0.2 1.5-0.1 2.9 0.3 4.4q0.3 0.6 0.6 1.3c0.2 0.2 0.4 0.4 0.7 0.3 0.3-0.1 0.4-0.3 0.4-0.6 0-0.8-0.2-1.6-0.4-2.4-0.4-2.5 0.1-4.8 1.8-6.8 0.9-1.1 1.8-2.4 2.3-3.9 0-0.1 0.1-0.3 0.3-0.2 0.1 0 0.1 0.2 0.1 0.3 0.1 0.6 0 1.2 0 1.8z"/>
	<path id="Layer" class="s0" d="m3.9 18.5c1.3 0.1 2.5 0.5 3.6 1.1q0.5 0.2 0.9 0.5c0.3 0.1 0.4 0.4 0.3 0.6-0.2 0.4-0.5 0.2-0.7 0-0.6-0.6-1.4-0.8-2.3-1-0.9-0.1-1.8 0.1-2.4 0.8-0.4 0.4-0.8 0.4-1.2 0.1q-0.7-0.6-0.1-1.4c0.4-0.4 1.2-0.7 1.9-0.7z"/>
	<path id="Layer" class="s0" d="m9.3 23.6c-0.3-1.4 0.4-2.6 1.3-3.2 0.1-0.1 0.3-0.2 0.5-0.1 0.1 0.1-0.1 0.3-0.1 0.4q-0.5 0.7-0.9 1.4c-0.3 0.5-0.3 1-0.8 1.5z"/>
	<path id="Layer" fill-rule="evenodd" class="s2" d="m88.3 12.6c0 1.2-0.4 2.2-1.2 3-0.9 0.8-2.1 1.2-3.3 1.2h-3.9v5.1h-0.1-2.7v-13.5h6.7c2.5 0 4.5 1.6 4.5 4.2zm-2.8 0.1c0-1.2-0.8-1.9-1.9-1.9h-3.8v3.7h3.8c1.1 0 1.9-0.7 1.9-1.8z"/>
	<path id="Layer" class="s2" d="m100.8 8.4h-1.8v7.7c0 1.9-1.1 3.4-3.2 3.4-2 0-3.2-1.5-3.2-3.4v-7.7h-2.7v7.7c0 3.6 2.2 6 5.9 6 3.7 0 6-2.4 6-6v-6.7c0-0.5-0.5-1-1-1z"/>
	<path id="Layer" class="s2" d="m107.5 9c-0.2-0.4-0.7-0.6-1.2-0.6h-1.9v13.5h2.8v-9l5.9 8.4c0.3 0.3 0.8 0.6 1.2 0.6h2.2q-1.7-2.4-3.4-4.8c-1.9-2.6-3.7-5.4-5.6-8.1z"/>
	<path id="Layer" class="s2" d="m113.8 16.5l2.7 3.8v-11.9h-2.7z"/>
	<path id="Layer" class="s2" d="m128 8.4h-1.8v8.2c0 1.6-1 2.9-2.7 2.9-2.4 0-2.3-2.1-3.4-2.1-0.2 0-1.8 0.6-2.1 0.7 0.8 2.6 2.8 4 5.5 4 3.2 0 5.5-2.2 5.5-5.5v-7.2c0-0.6-0.4-1-1-1z"/>
	<path id="Layer" class="s2" d="m138.6 8.4h-2.8l-5.3 13.5h3l4.2-10.8 4.2 10.8h3l-4.9-12.5c-0.2-0.6-0.8-1-1.4-1z"/>
	<path id="Layer" class="s2" d="m156.1 14.9c1-0.6 1.7-1.6 1.7-2.8 0-2.5-2.3-3.7-4.6-3.7h-6.3v13.5h2.8v-11.2h3.3c1 0 2 0.5 2 1.6 0 1.6-1.7 1.6-2.8 1.6-0.4 0-0.8 0.2-0.9 0.6q-0.3 0.8-0.6 1.6h2.6c1.1 0 2.2 0.5 2.2 1.7 0 1.9-2 1.7-3.3 1.7-0.4 0-0.8 0.3-0.9 0.7l-0.6 1.7h2.8c2.5 0 4.7-1.3 4.7-3.9 0-1.4-0.9-2.5-2.1-3.1z"/>
	<path id="Layer" class="s2" d="m162.5 8.4h-1.8v13.5h2.8v-12.5c0-0.6-0.4-1-1-1z"/>
	<path id="Layer" fill-rule="evenodd" class="s2" d="m88.3 32.3c0 1.2-0.4 2.2-1.2 3-0.9 0.8-2.1 1.2-3.3 1.2h-3.9v5h-0.1v0.1h-2.7v-13.5h6.7c2.5 0 4.5 1.6 4.5 4.2zm-2.8 0c0-1.1-0.8-1.8-1.9-1.8h-3.8v3.7h3.8c1.1 0 1.9-0.7 1.9-1.9z"/>
	<path id="Layer" class="s2" d="m95.6 28.1h-2.8l-5.3 13.4h3l4.2-10.7 4.2 10.7h3l-4.9-12.4c-0.2-0.6-0.8-1-1.4-1z"/>
	<path id="Layer" class="s2" d="m114.8 32.3c0-2.7-2.1-4.2-4.6-4.2h-6.6v1.4c0 0.6 0.4 1 1 1h5.3c1.2 0 2.1 0.6 2.1 1.8 0 1.2-0.9 1.8-2.1 1.8h-6.3v7.4h2.8v-5.1h2.4c0.4 0 0.8 0.2 0.9 0.5l2.1 4.1c0.2 0.4 0.5 0.5 0.9 0.5h2.5l-3-5.5c1.6-0.6 2.6-2 2.6-3.7z"/>
	<path id="Layer" class="s2" d="m125.1 28.1h-2.7l-5.4 13.4h3l4.3-10.7 4.2 10.7h3l-4.9-12.4c-0.3-0.6-0.9-1-1.5-1z"/>
	<path id="Layer" class="s2" d="m138.6 28.1h-5.1v13.4h2.8v-10.9h2.3c2.5 0 4.3 1.9 4.3 4.3 0 1.7-1 3.2-2.6 3.8-0.5 0.3-1 0.3-1.5 0.4-0.4 0-0.7 0.2-0.9 0.6l-0.7 1.8h1.4c3.9 0 7.1-2.7 7.1-6.6 0-4-3.2-6.8-7.1-6.8z"/>
	<path id="Layer" class="s2" d="m149.9 28.1h-1.8v13.4h2.8v-12.4c0-0.6-0.5-1-1-1z"/>
	<path id="Layer" class="s2" d="m156.3 31.8c0-1.2 1.6-1.5 2.5-1.5 1.8 0 3.3 1.1 3.8 1.1 0.7 0 1.5-1.1 2-1.5-1.6-1.3-3.7-2-5.6-2-2.6 0-5.3 1.1-5.3 4.1 0 5.4 8.4 2.6 8.4 5.7 0 1.3-1.7 1.7-2.8 1.7-2.2 0-3.6-1.5-4.2-1.5-0.7 0-1.5 1.1-1.9 1.5 1.6 1.5 3.8 2.4 6 2.4 2.6 0 5.6-1.2 5.6-4.4 0-5.4-8.5-2.7-8.5-5.6z"/>
	<path id="Layer" class="s2" d="m169.7 36h4.5c0.3 0 0.7-0.3 0.8-0.6l0.7-1.7h-6v-3.2h7c0.4 0 0.8-0.2 0.9-0.6l0.7-1.8h-11.3v13.4h2.7 7.1c0.4 0 0.8-0.2 0.9-0.6l0.6-1.8h-8.6z"/>
</svg>